<?xml version="1.0" encoding="UTF-8"?>
<svg id="Ebene_2" data-name="Ebene 2" xmlns="http://www.w3.org/2000/svg" viewBox="0 0 214.55 162.67">
  <g id="Ebene_1-2" data-name="Ebene 1">
    <path d="M183.55,162.67H31c-17.09,0-31-13.91-31-31V31C0,13.91,13.91,0,31,0h152.55c17.09,0,31,13.91,31,31v100.67c0,17.09-13.91,31-31,31ZM31,8c-12.68,0-23,10.32-23,23v100.67c0,12.68,10.32,23,23,23h152.55c12.68,0,23-10.32,23-23V31c0-12.68-10.32-23-23-23H31Z"/>
    <g>
      <path d="M50.86,35.92c1.77-2.42,7.09-6.43,13.41-6.43,7.17,0,12.1,3.78,12.1,9.75s-2.08,8.77-2.08,13c0,7.11,1.46,7.71,1.46,9.98,0,3.17-7.55,6.12-13.87,6.12-3.78,0-5.32-1.81-5.32-4.76,0-4.84,2.7-11.87,2.7-17.01,0-3.02-.85-4.01-2.31-4.01-2.31,0-5.39,3.1-5.39,7.71,0,11.94-.46,18.29-6.32,18.29-5.08,0-12.17-2.57-12.17-5.67,0-2.5,1.16-4.31,1.16-11.19,0-5.67-2.62-10.73-2.62-14.36,0-3.02,7.71-6.8,13.41-6.8,3.93,0,5.09,3.1,5.86,5.37Z"/>
      <path d="M116.67,42.73c0,9.37-21.34,7.86-21.34,11.11,0,1.44,1.31,2.87,5.32,2.87,5.16,0,8.48-4.38,10.56-4.38,2.46.23,6.24,4.46,6.24,7.41,0,3.25-7.86,9.15-18.11,9.15-11.56,0-20.88-7.33-20.88-19.2s9.17-20.64,21.27-20.64c10.71,0,16.95,5.97,16.95,13.68ZM100.34,39.1c-3.54,0-7.01,2.19-7.01,4.31,0,.45.46,1.13,1.23,1.13,2.93,0,8.63-2.19,8.63-3.4,0-1.13-1.08-2.04-2.85-2.04Z"/>
      <path d="M139.79,33.43c0,1.66-2.62,8.16-2.62,14.21,0,2.87.92,4.99,2.7,4.99s2.93-1.97,2.93-5.82c0-4.76-.54-6.35-.54-8.92,0-3.1,7.4-6.58,12.25-6.58,2.54,0,3.08.91,3.08,3.63,0,4.23-1.54,8.09-1.54,12.93,0,1.89,1.08,4.31,3,4.31,2.85,0,4.08-2.49,4.08-6.88s-1.23-7.03-1.23-10.28,8.4-6.43,13.18-6.43c3.47,0,5.32,2.27,5.32,6.8,0,22.83-8.55,31.67-19.26,31.67-7.94,0-10.33-4.16-11.71-4.16-1.31,0-3.54,5.82-13.72,5.82-8.4,0-15.41-6.58-15.41-18.82,0-13.3,4.08-19.28,16.49-19.28,2,0,3,1.13,3,2.8Z"/>
    </g>
    <g>
      <path d="M49.97,82.48c0,1.62-3,18.03-3,26.89,0,6.4,1.31,7.55,4.08,7.55,6.55,0,10.71-5.16,12.1-5.16,1.23,0,2.39.77,2.39,4.01,0,7.32-.46,12.56-7.55,15.26-5.47,2.08-9.86,2.23-14.56,2.23s-11.56-1-13.48-4.93c-1.46-2.93-2.31-14.72-2.31-23.73,0-12.02,1.16-19.8,4.55-21.65,4.08-2.23,11.4-3.7,14.02-3.7,2.31,0,3.78,1.54,3.78,3.24Z"/>
      <path d="M105.77,106.6c0,9.56-21.34,8.01-21.34,11.33,0,1.46,1.31,2.93,5.32,2.93,5.16,0,8.48-4.47,10.56-4.47,2.47.23,6.24,4.55,6.24,7.55,0,3.31-7.86,9.32-18.11,9.32-11.56,0-20.88-7.47-20.88-19.57s9.17-21.04,21.27-21.04c10.71,0,16.95,6.09,16.95,13.95ZM89.43,102.9c-3.54,0-7.01,2.23-7.01,4.39,0,.46.46,1.16,1.23,1.16,2.93,0,8.63-2.23,8.63-3.47,0-1.16-1.08-2.08-2.85-2.08Z"/>
      <path d="M147.23,105.36c0,8.32-1.31,11.71-1.31,14.79,0,5.32,1.85,5.24,1.85,6.86,0,2.31-6.55,6.47-10.94,6.47-3.54,0-4.47-3.08-5.32-3.08-.92,0-5.32,2.93-10.94,2.93-7.94,0-12.1-4.39-12.1-9.94,0-15.26,22.58-13.79,22.58-18.03,0-.85-.77-1.62-2.39-1.62-6.86,0-11.71,5.47-14.18,5.47-2,0-2.62-2.7-2.62-5.24,0-1.77.23-3.47.69-4.24,1.77-3.93,9.09-7.4,19.03-7.4,8.17,0,15.64,4.7,15.64,13.02ZM122.8,121.39c0,1.46.85,2.16,2.39,2.16,2.08,0,6.16-3.7,6.16-5.7,0-1-.31-1.77-1.08-1.77-2.85,0-7.47,3.31-7.47,5.32Z"/>
      <path d="M184.83,86.48c0,4.85-6.7,7.63-10.25,7.63-2.31,0-.62-7.01-3.31-7.01-1.93,0-2.62,2.62-2.62,5.39,0,3.47,0,6.86,1.31,6.86,3.39,0,4.62-.85,6.01-.85,2.77,0,5.16,4.78,5.16,10.09,0,2.85-1,4.39-2.77,4.39-1.93,0-6.16.08-6.16,2.62s.85,6.7.85,14.72c0,2.85-1.16,4.32-4.39,4.32-6.32,0-12.95-2.7-12.95-6.01,0-2.47.54-4.86.54-12.1,0-1.46-.54-2-2.16-2-2.7,0-4.24-3.85-4.24-9.4,0-1.85,1.46-2.54,2.7-3.08,1.16-.39,1.62-.62,1.62-1.93,0-2.7-1.31-5.32-1.31-11.17,0-8.55,6.47-14.87,16.41-14.87,9.09,0,15.57,5.86,15.57,12.41Z"/>
    </g>
  </g>
</svg>