<?xml version="1.0" encoding="UTF-8"?>
<svg id="Ebene_2" data-name="Ebene 2" xmlns="http://www.w3.org/2000/svg" viewBox="0 0 229.44 110.37">
  <defs>
    <style>
      .cls-1 {
        fill: #fff;
      }
    </style>
  </defs>
  <g id="Ebene_1-2" data-name="Ebene 1">
    <g>
      <path class="cls-1" d="M64.7,9.76c1.77-2.42,7.09-6.43,13.41-6.43,7.17,0,12.1,3.78,12.1,9.75s-2.08,8.77-2.08,13c0,7.11,1.46,7.71,1.46,9.98,0,3.17-7.55,6.12-13.87,6.12-3.78,0-5.32-1.81-5.32-4.76,0-4.84,2.7-11.87,2.7-17.01,0-3.02-.85-4.01-2.31-4.01-2.31,0-5.39,3.1-5.39,7.71,0,11.94-.46,18.29-6.32,18.29-5.08,0-12.17-2.57-12.17-5.67,0-2.5,1.16-4.31,1.16-11.19,0-5.67-2.62-10.73-2.62-14.36,0-3.02,7.71-6.8,13.41-6.8,3.93,0,5.09,3.1,5.86,5.37Z"/>
      <path class="cls-1" d="M130.51,16.56c0,9.37-21.34,7.86-21.34,11.11,0,1.44,1.31,2.87,5.32,2.87,5.16,0,8.48-4.38,10.56-4.38,2.46.23,6.24,4.46,6.24,7.41,0,3.25-7.86,9.15-18.11,9.15-11.56,0-20.88-7.33-20.88-19.2S101.46,2.88,113.56,2.88c10.71,0,16.95,5.97,16.95,13.68ZM114.18,12.93c-3.54,0-7.01,2.19-7.01,4.31,0,.45.46,1.13,1.23,1.13,2.93,0,8.63-2.19,8.63-3.4,0-1.13-1.08-2.04-2.85-2.04Z"/>
      <path class="cls-1" d="M153.63,7.26c0,1.66-2.62,8.16-2.62,14.21,0,2.87.92,4.99,2.7,4.99s2.93-1.97,2.93-5.82c0-4.76-.54-6.35-.54-8.92,0-3.1,7.4-6.58,12.25-6.58,2.54,0,3.08.91,3.08,3.63,0,4.23-1.54,8.09-1.54,12.93,0,1.89,1.08,4.31,3,4.31,2.85,0,4.08-2.49,4.08-6.88s-1.23-7.03-1.23-10.28,8.4-6.43,13.18-6.43c3.47,0,5.32,2.27,5.32,6.8,0,22.83-8.55,31.67-19.26,31.67-7.94,0-10.33-4.16-11.71-4.16-1.31,0-3.54,5.82-13.72,5.82-8.4,0-15.41-6.58-15.41-18.82,0-13.3,4.08-19.28,16.49-19.28,2,0,3,1.13,3,2.8Z"/>
    </g>
    <g>
      <path class="cls-1" d="M68.98,54.07c0,7.74-2.39,20.97-2.39,36.52,0,5.34,2.87,8.13,2.87,11.32s-5.5,7.97-14.67,7.97c-3.51,0-5.26-1.75-5.26-4.86,0-5.58,1.59-14.04,1.59-23.52,0-11.64-2.63-20.33-2.63-24.48s8.77-9.01,15.31-9.01c3.35,0,5.18,1.91,5.18,6.06Z"/>
      <path class="cls-1" d="M111.17,81.35c0,9.89-22.09,8.29-22.09,11.72,0,1.52,1.36,3.03,5.5,3.03,5.34,0,8.77-4.62,10.92-4.62,2.55.24,6.46,4.71,6.46,7.81,0,3.43-8.13,9.65-18.74,9.65-11.96,0-21.61-7.74-21.61-20.25s9.49-21.77,22.01-21.77c11.08,0,17.54,6.3,17.54,14.43ZM94.26,77.52c-3.67,0-7.26,2.31-7.26,4.55,0,.48.48,1.2,1.28,1.2,3.03,0,8.93-2.31,8.93-3.59,0-1.2-1.12-2.15-2.95-2.15Z"/>
      <path class="cls-1" d="M154.07,80.07c0,8.61-1.36,12.12-1.36,15.31,0,5.5,1.91,5.42,1.91,7.1,0,2.39-6.78,6.7-11.32,6.7-3.67,0-4.62-3.19-5.5-3.19-.96,0-5.5,3.03-11.32,3.03-8.21,0-12.52-4.55-12.52-10.29,0-15.79,23.36-14.27,23.36-18.66,0-.88-.8-1.67-2.47-1.67-7.1,0-12.12,5.66-14.67,5.66-2.07,0-2.71-2.79-2.71-5.42,0-1.83.24-3.59.72-4.39,1.83-4.07,9.41-7.66,19.7-7.66,8.45,0,16.19,4.86,16.19,13.48ZM128.79,96.66c0,1.51.88,2.23,2.47,2.23,2.15,0,6.38-3.83,6.38-5.9,0-1.04-.32-1.83-1.12-1.83-2.95,0-7.73,3.43-7.73,5.5Z"/>
      <path class="cls-1" d="M192.98,60.53c0,5.02-6.94,7.89-10.61,7.89-2.39,0-.64-7.26-3.43-7.26-1.99,0-2.71,2.71-2.71,5.58,0,3.59,0,7.1,1.36,7.1,3.51,0,4.78-.88,6.22-.88,2.87,0,5.34,4.94,5.34,10.45,0,2.95-1.04,4.54-2.87,4.54-1.99,0-6.38.08-6.38,2.71s.88,6.94.88,15.23c0,2.95-1.2,4.47-4.55,4.47-6.54,0-13.4-2.79-13.4-6.22,0-2.55.56-5.02.56-12.52,0-1.51-.56-2.07-2.23-2.07-2.79,0-4.39-3.99-4.39-9.73,0-1.91,1.52-2.63,2.79-3.19,1.2-.4,1.67-.64,1.67-1.99,0-2.79-1.36-5.5-1.36-11.56,0-8.85,6.7-15.39,16.99-15.39,9.41,0,16.11,6.06,16.11,12.84Z"/>
    </g>
    <path class="cls-1" d="M21.99,1.31c-.06-.98,1-1.63,1.85-1.14,4.89,2.83,20.02,13.87,10.61,21.34-10.3,8.18-12-11.96-12.46-20.2Z"/>
    <path class="cls-1" d="M1.78,22.74c-1.35-.06-2.23,1.39-1.54,2.56,3.94,6.69,15.42,23.01,29.45,14.32C51.44,26.15,13.1,23.28,1.78,22.74Z"/>
    <path class="cls-1" d="M209.49,58.53c.05-.89-.91-1.48-1.68-1.03-4.44,2.56-18.16,12.59-9.63,19.36,9.35,7.42,10.89-10.86,11.31-18.33Z"/>
    <path class="cls-1" d="M227.83,77.98c1.22-.06,2.02,1.26,1.4,2.32-3.58,6.07-14,20.88-26.72,13-19.73-12.22,15.05-14.83,25.32-15.32Z"/>
  </g>
</svg>